<svg version="1.1" id="Layer_1" xmlns="http://www.w3.org/2000/svg" xmlns:xlink="http://www.w3.org/1999/xlink" x="0px" y="0px"width="30" viewBox="0 0 365 283" enable-background="new 0 0 365 283" xml:space="preserve"><path fill="transparent" opacity="1.000000" stroke="none" d="M253.000000,284.000000 C168.666687,284.000000 84.833366,284.000000 1.000034,284.000000 C1.000022,189.666702 1.000022,95.333397 1.000011,1.000072 C122.666618,1.000048 244.333237,1.000048 365.999878,1.000024 C365.999939,95.333260 365.999939,189.666519 365.999969,283.999878 C328.500000,284.000000 291.000000,284.000000 253.000000,284.000000 M160.499969,228.999969 C174.092987,215.073898 187.634171,201.096802 201.290024,187.232620 C228.042206,160.072311 254.810104,132.927139 281.663513,105.866997 C302.441132,84.929398 323.405334,64.176949 344.188080,43.244408 C351.040161,36.342957 357.584442,29.135920 363.514984,22.866282 C357.463013,16.789133 351.874542,11.177397 345.966522,5.244761 C273.827271,78.244637 201.310013,151.627060 128.508133,225.297485 C93.966553,193.241455 59.879662,161.607391 25.539536,129.738312 C19.657873,136.194534 14.246271,142.134781 8.495091,148.447784 C13.448195,152.895752 18.062601,156.927475 22.553736,161.092133 C41.638451,178.789459 60.719154,196.491364 79.736366,214.261139 C91.861069,225.590485 103.838066,237.077835 115.952278,248.418518 C120.162117,252.359543 124.585220,256.072784 129.323715,260.254333 C139.581543,249.970428 149.790802,239.735229 160.499969,228.999969 z"/><path fill="#009E55" opacity="1.000000" stroke="none" d="M160.250000,229.250000 C149.790802,239.735229 139.581543,249.970428 129.323715,260.254333 C124.585220,256.072784 120.162117,252.359543 115.952278,248.418518 C103.838066,237.077835 91.861069,225.590485 79.736366,214.261139 C60.719154,196.491364 41.638451,178.789459 22.553736,161.092133 C18.062601,156.927475 13.448195,152.895752 8.495091,148.447784 C14.246271,142.134781 19.657873,136.194534 25.539536,129.738312 C59.879662,161.607391 93.966553,193.241455 128.508133,225.297485 C201.310013,151.627060 273.827271,78.244637 345.966522,5.244761 C351.874542,11.177397 357.463013,16.789133 363.514984,22.866282 C357.584442,29.135920 351.040161,36.342957 344.188080,43.244408 C323.405334,64.176949 302.441132,84.929398 281.663513,105.866997 C254.810104,132.927139 228.042206,160.072311 201.290024,187.232620 C187.634171,201.096802 174.092987,215.073898 160.250000,229.250000 z"/></svg>
